# xmcd
# Copyright (C) 1995-1998 Ti Kan
#
# Track frame offsets:
#       150
#       17688
#       35399
#       53542
#       68527
#       89189
#       106486
#       119082
#       139168
#       156427
#       175111
#       193725
#
# Disc length: 2746 seconds
#
# Revision: 0
# Processed by: cddbd v1.5.2PL0 Copyright (c) Steve Scherf et al.
# Submitted via: CD-Import v1.0
#
DISCID=a70ab80c
DTITLE=Bonnie "prince" Billy - Lie Down In The Light
DYEAR=2008
DGENRE=
TTITLE0=Easy Does It
TTITLE1=You Remind Me Of Something (The Glory Goes)
TTITLE2=So Everyone
TTITLE3=For Every Field There's A Mole
TTITLE4=(Keep An Eye On) Other's Gain
TTITLE5=You Want That Picture
TTITLE6=Missing One
TTITLE7=What's Missing Is
TTITLE8=Where Is The Puzzle
TTITLE9=Lie Down In The Night
TTITLE10=Willow Trees Bend
TTITLE11=I'll Be Glad
EXTD=
EXTT0=
EXTT1=
EXTT2=
EXTT3=
EXTT4=
EXTT5=
EXTT6=
EXTT7=
EXTT8=
EXTT9=
EXTT10=
EXTT11=
PLAYORDER=
